<mxfile version="13.10.9" type="github" etag="bIOSiCqLGA3HRsJo6UZJ" agent="5.0 (Windows NT 10.0; Win64; x64) AppleWebKit/537.36 (KHTML, like Gecko) Chrome/70.0.3538.102 Safari/537.36 Edge/18.18363" modified="2020-12-06T15:48:51.490Z" host="app.diagrams.net">
  <diagram id="R2lEEEUBdFMjLlhIrx00" name="关系数据库ER图">
    <mxGraphModel page="1" grid="1" shadow="0" math="0" pageHeight="1100" pageWidth="850" pageScale="1" fold="1" arrows="1" connect="1" tooltips="1" guides="1" gridSize="10" dy="1152" dx="1422" extFonts="Permanent Marker^https://fonts.googleapis.com/css?family=Permanent+Marker">
      <root>
        <mxCell id="0" />
        <mxCell id="1" parent="0" />
        <mxCell id="pdjW3l-s9vEzUtPWUf5G-111" parent="1" edge="1" target="pdjW3l-s9vEzUtPWUf5G-51" source="C-vyLk0tnHw3VtMMgP7b-2" style="rounded=0;orthogonalLoop=1;jettySize=auto;html=1;exitX=1;exitY=0.75;exitDx=0;exitDy=0;entryX=0;entryY=0.5;entryDx=0;entryDy=0;endArrow=none;endFill=0;">
          <mxGeometry as="geometry" relative="1" />
        </mxCell>
        <mxCell id="pdjW3l-s9vEzUtPWUf5G-112" value="1" parent="pdjW3l-s9vEzUtPWUf5G-111" style="edgeLabel;html=1;align=center;verticalAlign=middle;resizable=0;points=[];fontSize=18;" vertex="1" connectable="0">
          <mxGeometry as="geometry" relative="1" y="1" x="-0.8636">
            <mxPoint as="offset" />
          </mxGeometry>
        </mxCell>
        <mxCell id="pdjW3l-s9vEzUtPWUf5G-113" value="N" parent="pdjW3l-s9vEzUtPWUf5G-111" style="edgeLabel;html=1;align=center;verticalAlign=middle;resizable=0;points=[];fontSize=18;" vertex="1" connectable="0">
          <mxGeometry as="geometry" relative="1" y="-1" x="0.864">
            <mxPoint as="offset" />
          </mxGeometry>
        </mxCell>
        <mxCell id="pdjW3l-s9vEzUtPWUf5G-117" parent="1" edge="1" target="pdjW3l-s9vEzUtPWUf5G-59" source="C-vyLk0tnHw3VtMMgP7b-6" style="edgeStyle=none;rounded=0;orthogonalLoop=1;jettySize=auto;html=1;exitX=1;exitY=0.5;exitDx=0;exitDy=0;entryX=0;entryY=0.75;entryDx=0;entryDy=0;endArrow=none;endFill=0;">
          <mxGeometry as="geometry" relative="1" />
        </mxCell>
        <mxCell id="pdjW3l-s9vEzUtPWUf5G-118" value="N" parent="pdjW3l-s9vEzUtPWUf5G-117" style="edgeLabel;html=1;align=center;verticalAlign=middle;resizable=0;points=[];fontSize=18;" vertex="1" connectable="0">
          <mxGeometry as="geometry" relative="1" y="-2" x="-0.6811">
            <mxPoint as="offset" y="-10.37" x="3.96" />
          </mxGeometry>
        </mxCell>
        <mxCell id="pdjW3l-s9vEzUtPWUf5G-119" value="1" parent="pdjW3l-s9vEzUtPWUf5G-117" style="edgeLabel;html=1;align=center;verticalAlign=middle;resizable=0;points=[];fontSize=18;" vertex="1" connectable="0">
          <mxGeometry as="geometry" relative="1" y="-2" x="0.7774">
            <mxPoint as="offset" y="-1" />
          </mxGeometry>
        </mxCell>
        <mxCell id="C-vyLk0tnHw3VtMMgP7b-2" value="车辆驾驶员信息表" parent="1" style="shape=table;startSize=30;container=1;collapsible=1;childLayout=tableLayout;fixedRows=1;rowLines=0;fontStyle=1;align=center;resizeLast=1;" vertex="1">
          <mxGeometry width="250" as="geometry" height="275" y="485" x="390" />
        </mxCell>
        <mxCell id="C-vyLk0tnHw3VtMMgP7b-3" value="" parent="C-vyLk0tnHw3VtMMgP7b-2" style="shape=partialRectangle;collapsible=0;dropTarget=0;pointerEvents=0;fillColor=none;points=[[0,0.5],[1,0.5]];portConstraint=eastwest;top=0;left=0;right=0;bottom=1;" vertex="1">
          <mxGeometry width="250" as="geometry" height="30" y="30" />
        </mxCell>
        <mxCell id="C-vyLk0tnHw3VtMMgP7b-4" value="PK" parent="C-vyLk0tnHw3VtMMgP7b-3" style="shape=partialRectangle;overflow=hidden;connectable=0;fillColor=none;top=0;left=0;bottom=0;right=0;fontStyle=1;" vertex="1">
          <mxGeometry width="30" as="geometry" height="30" />
        </mxCell>
        <mxCell id="C-vyLk0tnHw3VtMMgP7b-5" value="驾驶员ID" parent="C-vyLk0tnHw3VtMMgP7b-3" style="shape=partialRectangle;overflow=hidden;connectable=0;fillColor=none;top=0;left=0;bottom=0;right=0;align=left;spacingLeft=6;fontStyle=5;" vertex="1">
          <mxGeometry width="220" as="geometry" height="30" x="30" />
        </mxCell>
        <mxCell id="C-vyLk0tnHw3VtMMgP7b-6" value="" parent="C-vyLk0tnHw3VtMMgP7b-2" style="shape=partialRectangle;collapsible=0;dropTarget=0;pointerEvents=0;fillColor=none;points=[[0,0.5],[1,0.5]];portConstraint=eastwest;top=0;left=0;right=0;bottom=0;" vertex="1">
          <mxGeometry width="250" as="geometry" height="30" y="60" />
        </mxCell>
        <mxCell id="C-vyLk0tnHw3VtMMgP7b-7" value="" parent="C-vyLk0tnHw3VtMMgP7b-6" style="shape=partialRectangle;overflow=hidden;connectable=0;fillColor=none;top=0;left=0;bottom=0;right=0;" vertex="1">
          <mxGeometry width="30" as="geometry" height="30" />
        </mxCell>
        <mxCell id="C-vyLk0tnHw3VtMMgP7b-8" value="姓名" parent="C-vyLk0tnHw3VtMMgP7b-6" style="shape=partialRectangle;overflow=hidden;connectable=0;fillColor=none;top=0;left=0;bottom=0;right=0;align=left;spacingLeft=6;" vertex="1">
          <mxGeometry width="220" as="geometry" height="30" x="30" />
        </mxCell>
        <mxCell id="C-vyLk0tnHw3VtMMgP7b-9" value="" parent="C-vyLk0tnHw3VtMMgP7b-2" style="shape=partialRectangle;collapsible=0;dropTarget=0;pointerEvents=0;fillColor=none;points=[[0,0.5],[1,0.5]];portConstraint=eastwest;top=0;left=0;right=0;bottom=0;" vertex="1">
          <mxGeometry width="250" as="geometry" height="30" y="90" />
        </mxCell>
        <mxCell id="C-vyLk0tnHw3VtMMgP7b-10" value="" parent="C-vyLk0tnHw3VtMMgP7b-9" style="shape=partialRectangle;overflow=hidden;connectable=0;fillColor=none;top=0;left=0;bottom=0;right=0;" vertex="1">
          <mxGeometry width="30" as="geometry" height="30" />
        </mxCell>
        <mxCell id="C-vyLk0tnHw3VtMMgP7b-11" value="年龄" parent="C-vyLk0tnHw3VtMMgP7b-9" style="shape=partialRectangle;overflow=hidden;connectable=0;fillColor=none;top=0;left=0;bottom=0;right=0;align=left;spacingLeft=6;" vertex="1">
          <mxGeometry width="220" as="geometry" height="30" x="30" />
        </mxCell>
        <mxCell id="pdjW3l-s9vEzUtPWUf5G-14" value="驾龄" parent="1" style="shape=partialRectangle;overflow=hidden;connectable=0;fillColor=none;top=0;left=0;bottom=0;right=0;align=left;spacingLeft=6;" vertex="1">
          <mxGeometry width="220" as="geometry" height="30" y="604" x="420" />
        </mxCell>
        <mxCell id="pdjW3l-s9vEzUtPWUf5G-15" value="电话号码" parent="1" style="shape=partialRectangle;overflow=hidden;connectable=0;fillColor=none;top=0;left=0;bottom=0;right=0;align=left;spacingLeft=6;" vertex="1">
          <mxGeometry width="220" as="geometry" height="30" y="634" x="420" />
        </mxCell>
        <mxCell id="pdjW3l-s9vEzUtPWUf5G-16" value="入职时间" parent="1" style="shape=partialRectangle;overflow=hidden;connectable=0;fillColor=none;top=0;left=0;bottom=0;right=0;align=left;spacingLeft=6;" vertex="1">
          <mxGeometry width="220" as="geometry" height="30" y="664" x="420" />
        </mxCell>
        <mxCell id="pdjW3l-s9vEzUtPWUf5G-17" value="人脸ID" parent="1" style="shape=partialRectangle;overflow=hidden;connectable=0;fillColor=none;top=0;left=0;bottom=0;right=0;align=left;spacingLeft=6;" vertex="1">
          <mxGeometry width="220" as="geometry" height="30" y="694" x="420" />
        </mxCell>
        <mxCell id="pdjW3l-s9vEzUtPWUf5G-18" value="绑定车辆ID" parent="1" style="shape=partialRectangle;overflow=hidden;connectable=0;fillColor=none;top=0;left=0;bottom=0;right=0;align=left;spacingLeft=6;" vertex="1">
          <mxGeometry width="220" as="geometry" height="30" y="724" x="420" />
        </mxCell>
        <mxCell id="pdjW3l-s9vEzUtPWUf5G-128" parent="1" edge="1" target="pdjW3l-s9vEzUtPWUf5G-96" source="pdjW3l-s9vEzUtPWUf5G-29" style="edgeStyle=none;rounded=0;orthogonalLoop=1;jettySize=auto;html=1;exitX=0.5;exitY=0;exitDx=0;exitDy=0;entryX=0.5;entryY=1;entryDx=0;entryDy=0;endArrow=none;endFill=0;fontSize=18;">
          <mxGeometry as="geometry" relative="1" />
        </mxCell>
        <mxCell id="pdjW3l-s9vEzUtPWUf5G-129" value="1" parent="pdjW3l-s9vEzUtPWUf5G-128" style="edgeLabel;html=1;align=center;verticalAlign=middle;resizable=0;points=[];fontSize=18;" vertex="1" connectable="0">
          <mxGeometry as="geometry" relative="1" x="0.7025">
            <mxPoint as="offset" />
          </mxGeometry>
        </mxCell>
        <mxCell id="pdjW3l-s9vEzUtPWUf5G-130" value="1" parent="pdjW3l-s9vEzUtPWUf5G-128" style="edgeLabel;html=1;align=center;verticalAlign=middle;resizable=0;points=[];fontSize=18;" vertex="1" connectable="0">
          <mxGeometry as="geometry" relative="1" y="-1" x="-0.5669">
            <mxPoint as="offset" />
          </mxGeometry>
        </mxCell>
        <mxCell id="pdjW3l-s9vEzUtPWUf5G-29" value="疲劳预警信息表" parent="1" style="shape=table;startSize=30;container=1;collapsible=1;childLayout=tableLayout;fixedRows=1;rowLines=0;fontStyle=1;align=center;resizeLast=1;" vertex="1">
          <mxGeometry width="250" as="geometry" height="300" y="484" x="50" />
        </mxCell>
        <mxCell id="pdjW3l-s9vEzUtPWUf5G-30" value="" parent="pdjW3l-s9vEzUtPWUf5G-29" style="shape=partialRectangle;collapsible=0;dropTarget=0;pointerEvents=0;fillColor=none;points=[[0,0.5],[1,0.5]];portConstraint=eastwest;top=0;left=0;right=0;bottom=1;" vertex="1">
          <mxGeometry width="250" as="geometry" height="30" y="30" />
        </mxCell>
        <mxCell id="pdjW3l-s9vEzUtPWUf5G-31" value="PK" parent="pdjW3l-s9vEzUtPWUf5G-30" style="shape=partialRectangle;overflow=hidden;connectable=0;fillColor=none;top=0;left=0;bottom=0;right=0;fontStyle=1;" vertex="1">
          <mxGeometry width="30" as="geometry" height="30" />
        </mxCell>
        <mxCell id="pdjW3l-s9vEzUtPWUf5G-32" value="预警ID" parent="pdjW3l-s9vEzUtPWUf5G-30" style="shape=partialRectangle;overflow=hidden;connectable=0;fillColor=none;top=0;left=0;bottom=0;right=0;align=left;spacingLeft=6;fontStyle=5;" vertex="1">
          <mxGeometry width="220" as="geometry" height="30" x="30" />
        </mxCell>
        <mxCell id="pdjW3l-s9vEzUtPWUf5G-33" value="" parent="pdjW3l-s9vEzUtPWUf5G-29" style="shape=partialRectangle;collapsible=0;dropTarget=0;pointerEvents=0;fillColor=none;points=[[0,0.5],[1,0.5]];portConstraint=eastwest;top=0;left=0;right=0;bottom=0;" vertex="1">
          <mxGeometry width="250" as="geometry" height="30" y="60" />
        </mxCell>
        <mxCell id="pdjW3l-s9vEzUtPWUf5G-34" value="" parent="pdjW3l-s9vEzUtPWUf5G-33" style="shape=partialRectangle;overflow=hidden;connectable=0;fillColor=none;top=0;left=0;bottom=0;right=0;" vertex="1">
          <mxGeometry width="30" as="geometry" height="30" />
        </mxCell>
        <mxCell id="pdjW3l-s9vEzUtPWUf5G-35" value="设备ID" parent="pdjW3l-s9vEzUtPWUf5G-33" style="shape=partialRectangle;overflow=hidden;connectable=0;fillColor=none;top=0;left=0;bottom=0;right=0;align=left;spacingLeft=6;" vertex="1">
          <mxGeometry width="220" as="geometry" height="30" x="30" />
        </mxCell>
        <mxCell id="pdjW3l-s9vEzUtPWUf5G-36" value="" parent="pdjW3l-s9vEzUtPWUf5G-29" style="shape=partialRectangle;collapsible=0;dropTarget=0;pointerEvents=0;fillColor=none;points=[[0,0.5],[1,0.5]];portConstraint=eastwest;top=0;left=0;right=0;bottom=0;" vertex="1">
          <mxGeometry width="250" as="geometry" height="30" y="90" />
        </mxCell>
        <mxCell id="pdjW3l-s9vEzUtPWUf5G-37" value="" parent="pdjW3l-s9vEzUtPWUf5G-36" style="shape=partialRectangle;overflow=hidden;connectable=0;fillColor=none;top=0;left=0;bottom=0;right=0;" vertex="1">
          <mxGeometry width="30" as="geometry" height="30" />
        </mxCell>
        <mxCell id="pdjW3l-s9vEzUtPWUf5G-38" value="预警时间戳" parent="pdjW3l-s9vEzUtPWUf5G-36" style="shape=partialRectangle;overflow=hidden;connectable=0;fillColor=none;top=0;left=0;bottom=0;right=0;align=left;spacingLeft=6;" vertex="1">
          <mxGeometry width="220" as="geometry" height="30" x="30" />
        </mxCell>
        <mxCell id="pdjW3l-s9vEzUtPWUf5G-39" value="预警位置" parent="1" style="shape=partialRectangle;overflow=hidden;connectable=0;fillColor=none;top=0;left=0;bottom=0;right=0;align=left;spacingLeft=6;" vertex="1">
          <mxGeometry width="220" as="geometry" height="30" y="603" x="80" />
        </mxCell>
        <mxCell id="pdjW3l-s9vEzUtPWUf5G-40" value="预警车速" parent="1" style="shape=partialRectangle;overflow=hidden;connectable=0;fillColor=none;top=0;left=0;bottom=0;right=0;align=left;spacingLeft=6;" vertex="1">
          <mxGeometry width="220" as="geometry" height="30" y="633" x="80" />
        </mxCell>
        <mxCell id="pdjW3l-s9vEzUtPWUf5G-41" value="人脸ID" parent="1" style="shape=partialRectangle;overflow=hidden;connectable=0;fillColor=none;top=0;left=0;bottom=0;right=0;align=left;spacingLeft=6;" vertex="1">
          <mxGeometry width="220" as="geometry" height="30" y="663" x="80" />
        </mxCell>
        <mxCell id="pdjW3l-s9vEzUtPWUf5G-42" value="图片url" parent="1" style="shape=partialRectangle;overflow=hidden;connectable=0;fillColor=none;top=0;left=0;bottom=0;right=0;align=left;spacingLeft=6;" vertex="1">
          <mxGeometry width="220" as="geometry" height="30" y="693" x="80" />
        </mxCell>
        <mxCell id="pdjW3l-s9vEzUtPWUf5G-43" value="视频url" parent="1" style="shape=partialRectangle;overflow=hidden;connectable=0;fillColor=none;top=0;left=0;bottom=0;right=0;align=left;spacingLeft=6;" vertex="1">
          <mxGeometry width="220" as="geometry" height="30" y="723" x="80" />
        </mxCell>
        <mxCell id="pdjW3l-s9vEzUtPWUf5G-114" parent="1" edge="1" target="pdjW3l-s9vEzUtPWUf5G-59" style="edgeStyle=none;rounded=0;orthogonalLoop=1;jettySize=auto;html=1;entryX=0.5;entryY=1;entryDx=0;entryDy=0;endArrow=none;endFill=0;">
          <mxGeometry as="geometry" relative="1">
            <mxPoint as="sourcePoint" y="641" x="900" />
          </mxGeometry>
        </mxCell>
        <mxCell id="pdjW3l-s9vEzUtPWUf5G-115" value="N" parent="pdjW3l-s9vEzUtPWUf5G-114" style="edgeLabel;html=1;align=center;verticalAlign=middle;resizable=0;points=[];fontSize=18;" vertex="1" connectable="0">
          <mxGeometry as="geometry" relative="1" y="-1" x="-0.687">
            <mxPoint as="offset" y="15.01" x="1.1600000000000001" />
          </mxGeometry>
        </mxCell>
        <mxCell id="pdjW3l-s9vEzUtPWUf5G-116" value="1" parent="pdjW3l-s9vEzUtPWUf5G-114" style="edgeLabel;html=1;align=center;verticalAlign=middle;resizable=0;points=[];fontSize=18;" vertex="1" connectable="0">
          <mxGeometry as="geometry" relative="1" y="1" x="0.6745">
            <mxPoint as="offset" />
          </mxGeometry>
        </mxCell>
        <mxCell id="pdjW3l-s9vEzUtPWUf5G-44" value="车辆信息表" parent="1" style="shape=table;startSize=30;container=1;collapsible=1;childLayout=tableLayout;fixedRows=1;rowLines=0;fontStyle=1;align=center;resizeLast=1;" vertex="1">
          <mxGeometry width="250" as="geometry" height="301" y="658.01" x="773.81" />
        </mxCell>
        <mxCell id="pdjW3l-s9vEzUtPWUf5G-45" value="" parent="pdjW3l-s9vEzUtPWUf5G-44" style="shape=partialRectangle;collapsible=0;dropTarget=0;pointerEvents=0;fillColor=none;points=[[0,0.5],[1,0.5]];portConstraint=eastwest;top=0;left=0;right=0;bottom=1;" vertex="1">
          <mxGeometry width="250" as="geometry" height="30" y="30" />
        </mxCell>
        <mxCell id="pdjW3l-s9vEzUtPWUf5G-46" value="PK" parent="pdjW3l-s9vEzUtPWUf5G-45" style="shape=partialRectangle;overflow=hidden;connectable=0;fillColor=none;top=0;left=0;bottom=0;right=0;fontStyle=1;" vertex="1">
          <mxGeometry width="30" as="geometry" height="30" />
        </mxCell>
        <mxCell id="pdjW3l-s9vEzUtPWUf5G-47" value="车辆ID" parent="pdjW3l-s9vEzUtPWUf5G-45" style="shape=partialRectangle;overflow=hidden;connectable=0;fillColor=none;top=0;left=0;bottom=0;right=0;align=left;spacingLeft=6;fontStyle=5;" vertex="1">
          <mxGeometry width="220" as="geometry" height="30" x="30" />
        </mxCell>
        <mxCell id="pdjW3l-s9vEzUtPWUf5G-48" value="" parent="pdjW3l-s9vEzUtPWUf5G-44" style="shape=partialRectangle;collapsible=0;dropTarget=0;pointerEvents=0;fillColor=none;points=[[0,0.5],[1,0.5]];portConstraint=eastwest;top=0;left=0;right=0;bottom=0;" vertex="1">
          <mxGeometry width="250" as="geometry" height="30" y="60" />
        </mxCell>
        <mxCell id="pdjW3l-s9vEzUtPWUf5G-49" value="" parent="pdjW3l-s9vEzUtPWUf5G-48" style="shape=partialRectangle;overflow=hidden;connectable=0;fillColor=none;top=0;left=0;bottom=0;right=0;" vertex="1">
          <mxGeometry width="30" as="geometry" height="30" />
        </mxCell>
        <mxCell id="pdjW3l-s9vEzUtPWUf5G-50" value="车辆名称" parent="pdjW3l-s9vEzUtPWUf5G-48" style="shape=partialRectangle;overflow=hidden;connectable=0;fillColor=none;top=0;left=0;bottom=0;right=0;align=left;spacingLeft=6;" vertex="1">
          <mxGeometry width="220" as="geometry" height="30" x="30" />
        </mxCell>
        <mxCell id="pdjW3l-s9vEzUtPWUf5G-51" value="" parent="pdjW3l-s9vEzUtPWUf5G-44" style="shape=partialRectangle;collapsible=0;dropTarget=0;pointerEvents=0;fillColor=none;points=[[0,0.5],[1,0.5]];portConstraint=eastwest;top=0;left=0;right=0;bottom=0;" vertex="1">
          <mxGeometry width="250" as="geometry" height="30" y="90" />
        </mxCell>
        <mxCell id="pdjW3l-s9vEzUtPWUf5G-52" value="" parent="pdjW3l-s9vEzUtPWUf5G-51" style="shape=partialRectangle;overflow=hidden;connectable=0;fillColor=none;top=0;left=0;bottom=0;right=0;" vertex="1">
          <mxGeometry width="30" as="geometry" height="30" />
        </mxCell>
        <mxCell id="pdjW3l-s9vEzUtPWUf5G-53" value="车龄" parent="pdjW3l-s9vEzUtPWUf5G-51" style="shape=partialRectangle;overflow=hidden;connectable=0;fillColor=none;top=0;left=0;bottom=0;right=0;align=left;spacingLeft=6;" vertex="1">
          <mxGeometry width="220" as="geometry" height="30" x="30" />
        </mxCell>
        <mxCell id="pdjW3l-s9vEzUtPWUf5G-54" value="车牌号" parent="1" style="shape=partialRectangle;overflow=hidden;connectable=0;fillColor=none;top=0;left=0;bottom=0;right=0;align=left;spacingLeft=6;" vertex="1">
          <mxGeometry width="220" as="geometry" height="30" y="777.01" x="803.81" />
        </mxCell>
        <mxCell id="pdjW3l-s9vEzUtPWUf5G-55" value="车辆价格" parent="1" style="shape=partialRectangle;overflow=hidden;connectable=0;fillColor=none;top=0;left=0;bottom=0;right=0;align=left;spacingLeft=6;" vertex="1">
          <mxGeometry width="220" as="geometry" height="30" y="807.01" x="803.81" />
        </mxCell>
        <mxCell id="pdjW3l-s9vEzUtPWUf5G-56" value="车辆图片url" parent="1" style="shape=partialRectangle;overflow=hidden;connectable=0;fillColor=none;top=0;left=0;bottom=0;right=0;align=left;spacingLeft=6;" vertex="1">
          <mxGeometry width="220" as="geometry" height="30" y="837.01" x="803.81" />
        </mxCell>
        <mxCell id="pdjW3l-s9vEzUtPWUf5G-57" value="绑定的司机ID" parent="1" style="shape=partialRectangle;overflow=hidden;connectable=0;fillColor=none;top=0;left=0;bottom=0;right=0;align=left;spacingLeft=6;" vertex="1">
          <mxGeometry width="220" as="geometry" height="30" y="867.01" x="803.81" />
        </mxCell>
        <mxCell id="pdjW3l-s9vEzUtPWUf5G-58" value="入库时间" parent="1" style="shape=partialRectangle;overflow=hidden;connectable=0;fillColor=none;top=0;left=0;bottom=0;right=0;align=left;spacingLeft=6;" vertex="1">
          <mxGeometry width="220" as="geometry" height="30" y="897.01" x="803.81" />
        </mxCell>
        <mxCell id="pdjW3l-s9vEzUtPWUf5G-59" value="车队信息表" parent="1" style="shape=table;startSize=30;container=1;collapsible=1;childLayout=tableLayout;fixedRows=1;rowLines=0;fontStyle=1;align=center;resizeLast=1;" vertex="1">
          <mxGeometry width="250" as="geometry" height="300" y="250" x="773.81" />
        </mxCell>
        <mxCell id="pdjW3l-s9vEzUtPWUf5G-60" value="" parent="pdjW3l-s9vEzUtPWUf5G-59" style="shape=partialRectangle;collapsible=0;dropTarget=0;pointerEvents=0;fillColor=none;points=[[0,0.5],[1,0.5]];portConstraint=eastwest;top=0;left=0;right=0;bottom=1;" vertex="1">
          <mxGeometry width="250" as="geometry" height="30" y="30" />
        </mxCell>
        <mxCell id="pdjW3l-s9vEzUtPWUf5G-61" value="PK" parent="pdjW3l-s9vEzUtPWUf5G-60" style="shape=partialRectangle;overflow=hidden;connectable=0;fillColor=none;top=0;left=0;bottom=0;right=0;fontStyle=1;" vertex="1">
          <mxGeometry width="30" as="geometry" height="30" />
        </mxCell>
        <mxCell id="pdjW3l-s9vEzUtPWUf5G-62" value="车队ID" parent="pdjW3l-s9vEzUtPWUf5G-60" style="shape=partialRectangle;overflow=hidden;connectable=0;fillColor=none;top=0;left=0;bottom=0;right=0;align=left;spacingLeft=6;fontStyle=5;" vertex="1">
          <mxGeometry width="220" as="geometry" height="30" x="30" />
        </mxCell>
        <mxCell id="pdjW3l-s9vEzUtPWUf5G-63" value="" parent="pdjW3l-s9vEzUtPWUf5G-59" style="shape=partialRectangle;collapsible=0;dropTarget=0;pointerEvents=0;fillColor=none;points=[[0,0.5],[1,0.5]];portConstraint=eastwest;top=0;left=0;right=0;bottom=0;" vertex="1">
          <mxGeometry width="250" as="geometry" height="30" y="60" />
        </mxCell>
        <mxCell id="pdjW3l-s9vEzUtPWUf5G-64" value="" parent="pdjW3l-s9vEzUtPWUf5G-63" style="shape=partialRectangle;overflow=hidden;connectable=0;fillColor=none;top=0;left=0;bottom=0;right=0;" vertex="1">
          <mxGeometry width="30" as="geometry" height="30" />
        </mxCell>
        <mxCell id="pdjW3l-s9vEzUtPWUf5G-65" value="车队名称" parent="pdjW3l-s9vEzUtPWUf5G-63" style="shape=partialRectangle;overflow=hidden;connectable=0;fillColor=none;top=0;left=0;bottom=0;right=0;align=left;spacingLeft=6;" vertex="1">
          <mxGeometry width="220" as="geometry" height="30" x="30" />
        </mxCell>
        <mxCell id="pdjW3l-s9vEzUtPWUf5G-66" value="" parent="pdjW3l-s9vEzUtPWUf5G-59" style="shape=partialRectangle;collapsible=0;dropTarget=0;pointerEvents=0;fillColor=none;points=[[0,0.5],[1,0.5]];portConstraint=eastwest;top=0;left=0;right=0;bottom=0;" vertex="1">
          <mxGeometry width="250" as="geometry" height="30" y="90" />
        </mxCell>
        <mxCell id="pdjW3l-s9vEzUtPWUf5G-67" value="" parent="pdjW3l-s9vEzUtPWUf5G-66" style="shape=partialRectangle;overflow=hidden;connectable=0;fillColor=none;top=0;left=0;bottom=0;right=0;" vertex="1">
          <mxGeometry width="30" as="geometry" height="30" />
        </mxCell>
        <mxCell id="pdjW3l-s9vEzUtPWUf5G-68" value="车队队长ID" parent="pdjW3l-s9vEzUtPWUf5G-66" style="shape=partialRectangle;overflow=hidden;connectable=0;fillColor=none;top=0;left=0;bottom=0;right=0;align=left;spacingLeft=6;" vertex="1">
          <mxGeometry width="220" as="geometry" height="30" x="30" />
        </mxCell>
        <mxCell id="pdjW3l-s9vEzUtPWUf5G-69" value="车队安全员ID" parent="1" style="shape=partialRectangle;overflow=hidden;connectable=0;fillColor=none;top=0;left=0;bottom=0;right=0;align=left;spacingLeft=6;" vertex="1">
          <mxGeometry width="220" as="geometry" height="30" y="369" x="803.81" />
        </mxCell>
        <mxCell id="pdjW3l-s9vEzUtPWUf5G-70" value="车队评分" parent="1" style="shape=partialRectangle;overflow=hidden;connectable=0;fillColor=none;top=0;left=0;bottom=0;right=0;align=left;spacingLeft=6;" vertex="1">
          <mxGeometry width="220" as="geometry" height="30" y="399" x="803.81" />
        </mxCell>
        <mxCell id="pdjW3l-s9vEzUtPWUf5G-71" value="入职时间" parent="1" style="shape=partialRectangle;overflow=hidden;connectable=0;fillColor=none;top=0;left=0;bottom=0;right=0;align=left;spacingLeft=6;" vertex="1">
          <mxGeometry width="220" as="geometry" height="30" y="429" x="803.81" />
        </mxCell>
        <mxCell id="pdjW3l-s9vEzUtPWUf5G-72" value="车队预警次数" parent="1" style="shape=partialRectangle;overflow=hidden;connectable=0;fillColor=none;top=0;left=0;bottom=0;right=0;align=left;spacingLeft=6;" vertex="1">
          <mxGeometry width="220" as="geometry" height="30" y="459" x="803.81" />
        </mxCell>
        <mxCell id="pdjW3l-s9vEzUtPWUf5G-73" value="绑定驾驶员ID" parent="1" style="shape=partialRectangle;overflow=hidden;connectable=0;fillColor=none;top=0;left=0;bottom=0;right=0;align=left;spacingLeft=6;" vertex="1">
          <mxGeometry width="220" as="geometry" height="30" y="489" x="803.81" />
        </mxCell>
        <mxCell id="pdjW3l-s9vEzUtPWUf5G-78" value="绑定车辆ID" parent="1" style="shape=partialRectangle;overflow=hidden;connectable=0;fillColor=none;top=0;left=0;bottom=0;right=0;align=left;spacingLeft=6;" vertex="1">
          <mxGeometry width="220" as="geometry" height="30" y="519" x="803.81" />
        </mxCell>
        <mxCell id="pdjW3l-s9vEzUtPWUf5G-79" value="其他信息" parent="1" style="shape=partialRectangle;overflow=hidden;connectable=0;fillColor=none;top=0;left=0;bottom=0;right=0;align=left;spacingLeft=6;" vertex="1">
          <mxGeometry width="220" as="geometry" height="30" y="753" x="80" />
        </mxCell>
        <mxCell id="pdjW3l-s9vEzUtPWUf5G-80" value="边缘检测设备信息表" parent="1" style="shape=table;startSize=30;container=1;collapsible=1;childLayout=tableLayout;fixedRows=1;rowLines=0;fontStyle=1;align=center;resizeLast=1;" vertex="1">
          <mxGeometry width="250" as="geometry" height="300" y="830" x="390" />
        </mxCell>
        <mxCell id="pdjW3l-s9vEzUtPWUf5G-81" value="" parent="pdjW3l-s9vEzUtPWUf5G-80" style="shape=partialRectangle;collapsible=0;dropTarget=0;pointerEvents=0;fillColor=none;points=[[0,0.5],[1,0.5]];portConstraint=eastwest;top=0;left=0;right=0;bottom=1;" vertex="1">
          <mxGeometry width="250" as="geometry" height="30" y="30" />
        </mxCell>
        <mxCell id="pdjW3l-s9vEzUtPWUf5G-82" value="PK" parent="pdjW3l-s9vEzUtPWUf5G-81" style="shape=partialRectangle;overflow=hidden;connectable=0;fillColor=none;top=0;left=0;bottom=0;right=0;fontStyle=1;" vertex="1">
          <mxGeometry width="30" as="geometry" height="30" />
        </mxCell>
        <mxCell id="pdjW3l-s9vEzUtPWUf5G-83" value="设备ID" parent="pdjW3l-s9vEzUtPWUf5G-81" style="shape=partialRectangle;overflow=hidden;connectable=0;fillColor=none;top=0;left=0;bottom=0;right=0;align=left;spacingLeft=6;fontStyle=5;" vertex="1">
          <mxGeometry width="220" as="geometry" height="30" x="30" />
        </mxCell>
        <mxCell id="pdjW3l-s9vEzUtPWUf5G-84" value="" parent="pdjW3l-s9vEzUtPWUf5G-80" style="shape=partialRectangle;collapsible=0;dropTarget=0;pointerEvents=0;fillColor=none;points=[[0,0.5],[1,0.5]];portConstraint=eastwest;top=0;left=0;right=0;bottom=0;" vertex="1">
          <mxGeometry width="250" as="geometry" height="30" y="60" />
        </mxCell>
        <mxCell id="pdjW3l-s9vEzUtPWUf5G-85" value="" parent="pdjW3l-s9vEzUtPWUf5G-84" style="shape=partialRectangle;overflow=hidden;connectable=0;fillColor=none;top=0;left=0;bottom=0;right=0;" vertex="1">
          <mxGeometry width="30" as="geometry" height="30" />
        </mxCell>
        <mxCell id="pdjW3l-s9vEzUtPWUf5G-86" value="生产日期" parent="pdjW3l-s9vEzUtPWUf5G-84" style="shape=partialRectangle;overflow=hidden;connectable=0;fillColor=none;top=0;left=0;bottom=0;right=0;align=left;spacingLeft=6;" vertex="1">
          <mxGeometry width="220" as="geometry" height="30" x="30" />
        </mxCell>
        <mxCell id="pdjW3l-s9vEzUtPWUf5G-87" value="" parent="pdjW3l-s9vEzUtPWUf5G-80" style="shape=partialRectangle;collapsible=0;dropTarget=0;pointerEvents=0;fillColor=none;points=[[0,0.5],[1,0.5]];portConstraint=eastwest;top=0;left=0;right=0;bottom=0;" vertex="1">
          <mxGeometry width="250" as="geometry" height="30" y="90" />
        </mxCell>
        <mxCell id="pdjW3l-s9vEzUtPWUf5G-88" value="" parent="pdjW3l-s9vEzUtPWUf5G-87" style="shape=partialRectangle;overflow=hidden;connectable=0;fillColor=none;top=0;left=0;bottom=0;right=0;" vertex="1">
          <mxGeometry width="30" as="geometry" height="30" />
        </mxCell>
        <mxCell id="pdjW3l-s9vEzUtPWUf5G-89" value="系统版本" parent="pdjW3l-s9vEzUtPWUf5G-87" style="shape=partialRectangle;overflow=hidden;connectable=0;fillColor=none;top=0;left=0;bottom=0;right=0;align=left;spacingLeft=6;" vertex="1">
          <mxGeometry width="220" as="geometry" height="30" x="30" />
        </mxCell>
        <mxCell id="pdjW3l-s9vEzUtPWUf5G-90" value="系统配置版本" parent="1" style="shape=partialRectangle;overflow=hidden;connectable=0;fillColor=none;top=0;left=0;bottom=0;right=0;align=left;spacingLeft=6;" vertex="1">
          <mxGeometry width="220" as="geometry" height="30" y="949" x="420" />
        </mxCell>
        <mxCell id="pdjW3l-s9vEzUtPWUf5G-91" value="质保截止日期" parent="1" style="shape=partialRectangle;overflow=hidden;connectable=0;fillColor=none;top=0;left=0;bottom=0;right=0;align=left;spacingLeft=6;" vertex="1">
          <mxGeometry width="220" as="geometry" height="30" y="979" x="420" />
        </mxCell>
        <mxCell id="pdjW3l-s9vEzUtPWUf5G-92" value="激活状态" parent="1" style="shape=partialRectangle;overflow=hidden;connectable=0;fillColor=none;top=0;left=0;bottom=0;right=0;align=left;spacingLeft=6;" vertex="1">
          <mxGeometry width="220" as="geometry" height="30" y="1009" x="420" />
        </mxCell>
        <mxCell id="pdjW3l-s9vEzUtPWUf5G-93" value="SIM 卡号" parent="1" style="shape=partialRectangle;overflow=hidden;connectable=0;fillColor=none;top=0;left=0;bottom=0;right=0;align=left;spacingLeft=6;" vertex="1">
          <mxGeometry width="220" as="geometry" height="30" y="1039" x="420" />
        </mxCell>
        <mxCell id="pdjW3l-s9vEzUtPWUf5G-94" value="设备序列号" parent="1" style="shape=partialRectangle;overflow=hidden;connectable=0;fillColor=none;top=0;left=0;bottom=0;right=0;align=left;spacingLeft=6;" vertex="1">
          <mxGeometry width="220" as="geometry" height="30" y="1069" x="420" />
        </mxCell>
        <mxCell id="pdjW3l-s9vEzUtPWUf5G-95" value="其他信息" parent="1" style="shape=partialRectangle;overflow=hidden;connectable=0;fillColor=none;top=0;left=0;bottom=0;right=0;align=left;spacingLeft=6;" vertex="1">
          <mxGeometry width="220" as="geometry" height="30" y="1099" x="420" />
        </mxCell>
        <mxCell id="pdjW3l-s9vEzUtPWUf5G-96" value="人脸特征信息表" parent="1" style="shape=table;startSize=30;container=1;collapsible=1;childLayout=tableLayout;fixedRows=1;rowLines=0;fontStyle=1;align=center;resizeLast=1;" vertex="1">
          <mxGeometry width="250" as="geometry" height="157.5" y="250" x="50" />
        </mxCell>
        <mxCell id="pdjW3l-s9vEzUtPWUf5G-97" value="" parent="pdjW3l-s9vEzUtPWUf5G-96" style="shape=partialRectangle;collapsible=0;dropTarget=0;pointerEvents=0;fillColor=none;points=[[0,0.5],[1,0.5]];portConstraint=eastwest;top=0;left=0;right=0;bottom=1;" vertex="1">
          <mxGeometry width="250" as="geometry" height="30" y="30" />
        </mxCell>
        <mxCell id="pdjW3l-s9vEzUtPWUf5G-98" value="PK" parent="pdjW3l-s9vEzUtPWUf5G-97" style="shape=partialRectangle;overflow=hidden;connectable=0;fillColor=none;top=0;left=0;bottom=0;right=0;fontStyle=1;" vertex="1">
          <mxGeometry width="30" as="geometry" height="30" />
        </mxCell>
        <mxCell id="pdjW3l-s9vEzUtPWUf5G-99" value="人脸ID" parent="pdjW3l-s9vEzUtPWUf5G-97" style="shape=partialRectangle;overflow=hidden;connectable=0;fillColor=none;top=0;left=0;bottom=0;right=0;align=left;spacingLeft=6;fontStyle=5;" vertex="1">
          <mxGeometry width="220" as="geometry" height="30" x="30" />
        </mxCell>
        <mxCell id="pdjW3l-s9vEzUtPWUf5G-100" value="" parent="pdjW3l-s9vEzUtPWUf5G-96" style="shape=partialRectangle;collapsible=0;dropTarget=0;pointerEvents=0;fillColor=none;points=[[0,0.5],[1,0.5]];portConstraint=eastwest;top=0;left=0;right=0;bottom=0;" vertex="1">
          <mxGeometry width="250" as="geometry" height="30" y="60" />
        </mxCell>
        <mxCell id="pdjW3l-s9vEzUtPWUf5G-101" value="" parent="pdjW3l-s9vEzUtPWUf5G-100" style="shape=partialRectangle;overflow=hidden;connectable=0;fillColor=none;top=0;left=0;bottom=0;right=0;" vertex="1">
          <mxGeometry width="30" as="geometry" height="30" />
        </mxCell>
        <mxCell id="pdjW3l-s9vEzUtPWUf5G-102" value="驾驶员ID" parent="pdjW3l-s9vEzUtPWUf5G-100" style="shape=partialRectangle;overflow=hidden;connectable=0;fillColor=none;top=0;left=0;bottom=0;right=0;align=left;spacingLeft=6;" vertex="1">
          <mxGeometry width="220" as="geometry" height="30" x="30" />
        </mxCell>
        <mxCell id="pdjW3l-s9vEzUtPWUf5G-103" value="" parent="pdjW3l-s9vEzUtPWUf5G-96" style="shape=partialRectangle;collapsible=0;dropTarget=0;pointerEvents=0;fillColor=none;points=[[0,0.5],[1,0.5]];portConstraint=eastwest;top=0;left=0;right=0;bottom=0;" vertex="1">
          <mxGeometry width="250" as="geometry" height="30" y="90" />
        </mxCell>
        <mxCell id="pdjW3l-s9vEzUtPWUf5G-104" value="" parent="pdjW3l-s9vEzUtPWUf5G-103" style="shape=partialRectangle;overflow=hidden;connectable=0;fillColor=none;top=0;left=0;bottom=0;right=0;" vertex="1">
          <mxGeometry width="30" as="geometry" height="30" />
        </mxCell>
        <mxCell id="pdjW3l-s9vEzUtPWUf5G-105" value="人脸url" parent="pdjW3l-s9vEzUtPWUf5G-103" style="shape=partialRectangle;overflow=hidden;connectable=0;fillColor=none;top=0;left=0;bottom=0;right=0;align=left;spacingLeft=6;" vertex="1">
          <mxGeometry width="220" as="geometry" height="30" x="30" />
        </mxCell>
        <mxCell id="pdjW3l-s9vEzUtPWUf5G-106" value="生成时间" parent="1" style="shape=partialRectangle;overflow=hidden;connectable=0;fillColor=none;top=0;left=0;bottom=0;right=0;align=left;spacingLeft=6;" vertex="1">
          <mxGeometry width="220" as="geometry" height="30" y="369" x="80" />
        </mxCell>
        <mxCell id="pdjW3l-s9vEzUtPWUf5G-124" parent="1" edge="1" target="pdjW3l-s9vEzUtPWUf5G-44" source="pdjW3l-s9vEzUtPWUf5G-84" style="edgeStyle=none;rounded=0;orthogonalLoop=1;jettySize=auto;html=1;exitX=1;exitY=0.5;exitDx=0;exitDy=0;entryX=0;entryY=0.75;entryDx=0;entryDy=0;endArrow=none;endFill=0;">
          <mxGeometry as="geometry" relative="1" />
        </mxCell>
        <mxCell id="pdjW3l-s9vEzUtPWUf5G-125" value="1" parent="pdjW3l-s9vEzUtPWUf5G-124" style="edgeLabel;html=1;align=center;verticalAlign=middle;resizable=0;points=[];fontSize=18;" vertex="1" connectable="0">
          <mxGeometry as="geometry" relative="1" y="-2" x="-0.7907">
            <mxPoint as="offset" x="1" />
          </mxGeometry>
        </mxCell>
        <mxCell id="pdjW3l-s9vEzUtPWUf5G-126" value="1" parent="pdjW3l-s9vEzUtPWUf5G-124" style="edgeLabel;html=1;align=center;verticalAlign=middle;resizable=0;points=[];fontSize=18;" vertex="1" connectable="0">
          <mxGeometry as="geometry" relative="1" y="-3" x="0.8604">
            <mxPoint as="offset" x="-1" />
          </mxGeometry>
        </mxCell>
        <mxCell id="pdjW3l-s9vEzUtPWUf5G-127" value="绑定的设备ID" parent="1" style="shape=partialRectangle;overflow=hidden;connectable=0;fillColor=none;top=0;left=0;bottom=0;right=0;align=left;spacingLeft=6;" vertex="1">
          <mxGeometry width="220" as="geometry" height="30" y="927.01" x="803.81" />
        </mxCell>
        <mxCell id="pdjW3l-s9vEzUtPWUf5G-131" parent="1" edge="1" target="C-vyLk0tnHw3VtMMgP7b-2" source="pdjW3l-s9vEzUtPWUf5G-33" style="edgeStyle=none;rounded=0;orthogonalLoop=1;jettySize=auto;html=1;exitX=1;exitY=0.5;exitDx=0;exitDy=0;entryX=0;entryY=0.5;entryDx=0;entryDy=0;endArrow=none;endFill=0;fontSize=18;">
          <mxGeometry as="geometry" relative="1" />
        </mxCell>
        <mxCell id="pdjW3l-s9vEzUtPWUf5G-132" value="1" parent="pdjW3l-s9vEzUtPWUf5G-131" style="edgeLabel;html=1;align=center;verticalAlign=middle;resizable=0;points=[];fontSize=18;" vertex="1" connectable="0">
          <mxGeometry as="geometry" relative="1" y="-1" x="-0.7896">
            <mxPoint as="offset" />
          </mxGeometry>
        </mxCell>
        <mxCell id="pdjW3l-s9vEzUtPWUf5G-133" value="1" parent="pdjW3l-s9vEzUtPWUf5G-131" style="edgeLabel;html=1;align=center;verticalAlign=middle;resizable=0;points=[];fontSize=18;" vertex="1" connectable="0">
          <mxGeometry as="geometry" relative="1" y="2" x="0.6979">
            <mxPoint as="offset" />
          </mxGeometry>
        </mxCell>
      </root>
    </mxGraphModel>
  </diagram>
</mxfile>
